<?xml version="1.0" encoding="UTF-8" standalone="no"?>
<svg
   width="338.66666mm"
   height="338.66666mm"
   viewBox="0 0 338.66665 338.66665"
   version="1.1"
   id="svg8"
   inkscape:version="1.3.2 (091e20ef0f, 2023-11-25, custom)"
   sodipodi:docname="app-icon.inkscape.svg"
   xml:space="preserve"
   inkscape:export-filename="bitmap.png"
   inkscape:export-xdpi="96"
   inkscape:export-ydpi="96"
   xmlns:inkscape="http://www.inkscape.org/namespaces/inkscape"
   xmlns:sodipodi="http://sodipodi.sourceforge.net/DTD/sodipodi-0.dtd"
   xmlns="http://www.w3.org/2000/svg"
   xmlns:svg="http://www.w3.org/2000/svg"
   xmlns:rdf="http://www.w3.org/1999/02/22-rdf-syntax-ns#"
   xmlns:cc="http://creativecommons.org/ns#"
   xmlns:dc="http://purl.org/dc/elements/1.1/"><defs
     id="defs2" /><sodipodi:namedview
     id="base"
     pagecolor="#2a3039"
     bordercolor="#37b0ff"
     borderopacity="1"
     inkscape:pageopacity="0"
     inkscape:pageshadow="2"
     inkscape:zoom="0.1767767"
     inkscape:cx="998.43478"
     inkscape:cy="579.82756"
     inkscape:document-units="px"
     inkscape:current-layer="svg8"
     inkscape:document-rotation="0"
     showgrid="false"
     showborder="true"
     inkscape:object-paths="true"
     inkscape:snap-intersection-paths="true"
     inkscape:snap-smooth-nodes="true"
     inkscape:window-width="1366"
     inkscape:window-height="740"
     inkscape:window-x="0"
     inkscape:window-y="0"
     inkscape:window-maximized="1"
     fit-margin-top="0"
     fit-margin-left="0"
     fit-margin-right="0"
     fit-margin-bottom="0"
     inkscape:pagecheckerboard="false"
     inkscape:showpageshadow="0"
     inkscape:deskcolor="#d1d1d1"
     showguides="true" /><metadata
     id="metadata5"><rdf:RDF><cc:Work
         rdf:about=""><dc:format>image/svg+xml</dc:format><dc:type
           rdf:resource="http://purl.org/dc/dcmitype/StillImage" /></cc:Work></rdf:RDF></metadata><rect
     style="fill:#ffffff;fill-opacity:1;stroke:none;stroke-width:8.30792;stroke-linecap:butt;stroke-linejoin:bevel;stroke-dasharray:none;stroke-opacity:1"
     id="rect9"
     width="1025.1611"
     height="955.44342"
     x="-2151.2471"
     y="-629.29181" /><path
     style="fill:#0e1418;stroke-width:1.18329;stroke-linejoin:bevel;fill-opacity:1"
     id="path1"
     sodipodi:type="arc"
     sodipodi:cx="169.33331"
     sodipodi:cy="169.33331"
     sodipodi:rx="169.33331"
     sodipodi:ry="169.33331"
     sodipodi:start="6.2215752"
     sodipodi:end="6.2202521"
     sodipodi:open="true"
     sodipodi:arc-type="arc"
     d="M 338.34535,158.90727 A 169.33331,169.33331 0 0 1 179.81526,338.34189 169.33331,169.33331 0 0 1 0.32821083,179.87117 169.33331,169.33331 0 0 1 158.73956,0.33170574 169.33331,169.33331 0 0 1 338.33141,158.68366" /><path
     style="fill:#2e1b2f;fill-opacity:1;stroke:none;stroke-width:0.264583px;stroke-linecap:butt;stroke-linejoin:miter;stroke-opacity:1"
     d="m 162.39934,302.04625 c 0,0 -69.520853,-2.35689 -81.161315,-46.34444 -12.04058,-45.49952 2.961481,-71.89495 18.35279,-93.68587 15.391305,-21.79092 12.494325,-38.39041 7.264675,-51.85522 -5.22966,-13.464815 75.96659,-65.709806 74.10813,-76.91314 -2.84408,-17.144996 -1.69203,-18.263498 -0.51676,-22.714374 4.00426,-15.1646 9.06508,-8.5198923 29.35118,7.590751 20.28609,16.110643 21.27784,40.695796 11.13114,56.08408 -15.85623,24.04724 31.93673,29.431413 13.17864,68.786293 -8.32955,17.47556 54.68232,38.15488 20.31258,113.7093 -21.53471,47.33937 -92.02106,45.34262 -92.02106,45.34262 z"
     id="path4"
     sodipodi:nodetypes="csssssssssc" /><path
     style="fill:#0798d7;fill-opacity:1;stroke:none;stroke-width:1.06736px;stroke-linecap:butt;stroke-linejoin:miter;stroke-opacity:1"
     d="m 90.171417,221.12866 c -6.428485,43.66105 35.594843,75.06841 61.710963,73.97134 40.72276,-1.71067 83.94394,-4.81495 95.0998,-55.28236 11.15576,-50.46739 -24.0768,-62.96736 -28.04957,-75.29399 -3.97273,-12.32661 16.26562,-19.57111 -0.56997,-44.54911 -10.56672,-15.67724 -17.22058,-19.26642 -14.39868,-34.576201 1.80909,-9.814956 15.35948,-13.862314 12.35886,-32.287207 -2.26901,-13.932545 1.88873,4.086158 -8.23369,9.815824 -0.46886,-3.29955 9.83094,-10.725923 -4.84509,-30.292489 -7.7092,-10.27818 -17.73977,-19.290048 -11.66964,1.702074 3.60806,12.477652 -5.38726,22.67056 -27.3118,40.947167 -53.35413,44.476802 12.3931,32.260712 -34.46559,85.383632 -22.98496,26.05767 -34.749413,27.34323 -39.625593,60.46132 z"
     id="path3"
     sodipodi:nodetypes="ssssssscsssss" /><path
     style="fill:#30bbf8;fill-opacity:1;stroke:none;stroke-width:0.264583px;stroke-linecap:butt;stroke-linejoin:miter;stroke-opacity:1"
     d="m 110.61014,272.2085 c -5.04554,-2.99342 -18.21843,-26.30881 -9.45674,-50.13975 16.21824,-44.11199 60.83012,-17.3934 55.92489,-89.05712 -2.57658,-37.642958 6.6358,-30.70009 16.5135,-46.430165 9.87769,-15.730063 24.53492,-24.122744 24.25721,-32.854523 -0.27771,-8.731779 -0.65335,-11.448949 -0.65335,-11.448949 0,0 5.23556,25.901548 -3.65992,44.62357 -8.89548,18.722037 6.171,30.659167 6.98805,47.821637 0.81705,17.16246 -7.7861,27.51226 -2.73032,36.86815 5.05578,9.3559 31.7203,24.54077 29.24722,60.07446 -2.47308,35.5337 -4.60267,43.35049 -25.06988,52.05595 -7.22163,3.07163 -57.9741,17.57903 -91.36066,-11.51326 z"
     id="path5"
     sodipodi:nodetypes="csssscsssssc" /><path
     style="fill:#56c9fa;fill-opacity:1;stroke:none;stroke-width:0.264583px;stroke-linecap:butt;stroke-linejoin:miter;stroke-opacity:1"
     d="m 113.01946,207.69273 c -0.62736,-11.2882 -2.38522,-25.02669 11.5383,-31.53708 22.49269,-10.51719 16.91267,-24.07812 16.91267,-24.07812 0,0 7.8021,20.3171 0.79374,28.87575 -5.40811,6.60443 -21.31446,12.3424 -29.24471,26.73945 z"
     id="path6"
     sodipodi:nodetypes="cscsc" /><path
     style="fill:#56c9fa;stroke:none;stroke-width:0.264583px;stroke-linecap:butt;stroke-linejoin:miter;stroke-opacity:1;fill-opacity:1"
     d="m 164.6287,89.51391 c 0,0 4.92993,-15.285886 3.27629,-19.477877 -1.65365,-4.191992 4.12687,-0.701768 4.12687,5.513874 0,6.215641 -7.40316,13.964003 -7.40316,13.964003 z"
     id="path7" /><text
     xml:space="preserve"
     style="font-size:254px;line-height:1.25;font-family:feather;-inkscape-font-specification:feather;fill:#ffffff;fill-opacity:1;stroke-width:0.264583"
     x="95.673317"
     y="258.86832"
     id="text1"><tspan
       sodipodi:role="line"
       id="tspan1"
       style="font-style:normal;font-variant:normal;font-weight:900;font-stretch:condensed;font-size:254px;font-family:'Nunito Sans 7pt Condensed';-inkscape-font-specification:'Nunito Sans 7pt Condensed,  Heavy Condensed';fill:#ffffff;fill-opacity:1;stroke-width:0.264583"
       x="95.673317"
       y="258.86832">Y</tspan></text><path
     style="fill:none;stroke:#28d6d6;stroke-width:8.30792;stroke-linecap:butt;stroke-linejoin:bevel;stroke-dasharray:none;stroke-opacity:1;fill-opacity:1"
     d="m 166.49721,222.17363 -15.4962,-18.5247 -6.00145,27.74759 32.55927,6.20023 5.36711,-35.14051 -34.42139,-16.39365 -21.08548,22.61727 20.25235,61.88249 54.40772,-27.04892 8.4336,-33.20531"
     id="path8"
     sodipodi:nodetypes="cccccccccc" /><path
     style="fill:#8ff5e1;fill-opacity:1;stroke:none;stroke-width:0.264583px;stroke-linecap:butt;stroke-linejoin:miter;stroke-opacity:1"
     d="m 162.37103,219.55731 c 0,0 6.11985,0.10159 5.18148,-7.36588 l -8.63458,-6.74177 -12.27623,-1.39951 -4.28038,28.58802 36.87692,8.6492 8.30445,-40.4403 -39.64984,-20.45633 -27.30398,26.67987 25.61361,69.18626 59.42842,-30.42164 10.19852,-36.56341 -43.92344,-54.65035 9.65333,-54.55827 10.42362,-28.866465 -13.56393,30.179735 -11.75151,54.32514 39.13954,55.56972 -7.9805,28.79923 -47.89909,25.46744 -17.83992,-56.83183 17.68426,-20.33639 29.99557,16.78463 -5.84652,27.8404 -24.37487,-4.38782 1.4397,-16.6845 3.52692,0.49037 z"
     id="path9"
     sodipodi:nodetypes="cccccccccccccccccccccccccccc" /></svg>
