<?xml version="1.0" encoding="UTF-8" standalone="no"?>
<svg
        width="338.66666mm"
        height="338.66666mm"
        viewBox="0 0 338.66665 338.66665"
        version="1.1"
        id="svg8"
        inkscape:version="1.3.2 (091e20ef0f, 2023-11-25, custom)"
        sodipodi:docname="app-icon.inkscape.svg"
        xml:space="preserve"
        inkscape:export-filename="../../app-icon-monochrome-padded.svg"
        inkscape:export-xdpi="96"
        inkscape:export-ydpi="96"
        xmlns:inkscape="http://www.inkscape.org/namespaces/inkscape"
        xmlns:sodipodi="http://sodipodi.sourceforge.net/DTD/sodipodi-0.dtd"
        xmlns="http://www.w3.org/2000/svg"
        xmlns:rdf="http://www.w3.org/1999/02/22-rdf-syntax-ns#"
        xmlns:cc="http://creativecommons.org/ns#"
        xmlns:dc="http://purl.org/dc/elements/1.1/"><defs
     id="defs2" /><sodipodi:namedview
     id="base"
     pagecolor="#2a3039"
     bordercolor="#37b0ff"
     borderopacity="1"
     inkscape:pageopacity="0"
     inkscape:pageshadow="2"
     inkscape:zoom="0.35000001"
     inkscape:cx="548.57141"
     inkscape:cy="869.99998"
     inkscape:document-units="px"
     inkscape:current-layer="svg8"
     inkscape:document-rotation="0"
     showgrid="false"
     showborder="true"
     inkscape:object-paths="true"
     inkscape:snap-intersection-paths="true"
     inkscape:snap-smooth-nodes="true"
     inkscape:window-width="1366"
     inkscape:window-height="739"
     inkscape:window-x="0"
     inkscape:window-y="0"
     inkscape:window-maximized="1"
     fit-margin-top="0"
     fit-margin-left="0"
     fit-margin-right="0"
     fit-margin-bottom="0"
     inkscape:pagecheckerboard="false"
     inkscape:showpageshadow="0"
     inkscape:deskcolor="#d1d1d1"
     showguides="true" /><metadata
     id="metadata5"><rdf:RDF><cc:Work
         rdf:about=""><dc:format>image/svg+xml</dc:format><dc:type
           rdf:resource="http://purl.org/dc/dcmitype/StillImage" /></cc:Work></rdf:RDF></metadata><rect
     style="fill:#ffffff;fill-opacity:1;stroke:none;stroke-width:8.30792;stroke-linecap:butt;stroke-linejoin:bevel;stroke-dasharray:none;stroke-opacity:1"
     id="rect9"
     width="1025.1611"
     height="955.44342"
     x="-2151.2471"
     y="-629.29181" /><path
     id="rect65"
     style="fill:#0e1418;fill-opacity:1;stroke-width:8.30792;stroke-linejoin:bevel"
     d="M -343.37112,-413.20455 V -74.537907 H -4.7044677 V -413.20455 Z m 91.86312,79.79822 h 49.02233 l 28.19363,66.0399 h 1.01647 l 28.44788,-66.0399 h 48.260102 l -55.162522,102.09506 -0.20981,76.97514 h -44.70373 v -77.11622 z" /><g
     id="g1"
     transform="translate(-509.19885,357.70011)"><path
       style="fill:#0e1418;fill-opacity:1;stroke-width:1.18329;stroke-linejoin:bevel"
       id="path1-3"
       sodipodi:type="arc"
       sodipodi:cx="660.70587"
       sodipodi:cy="194.45219"
       sodipodi:rx="169.33331"
       sodipodi:ry="169.33331"
       sodipodi:start="6.2215752"
       sodipodi:end="6.2202521"
       sodipodi:open="true"
       sodipodi:arc-type="arc"
       d="M 829.71791,184.02615 A 169.33331,169.33331 0 0 1 671.18782,363.46077 169.33331,169.33331 0 0 1 491.70077,204.99005 169.33331,169.33331 0 0 1 650.11212,25.450587 169.33331,169.33331 0 0 1 829.70397,183.80254" /><g
       id="g3"><path
         style="fill:#2e1b2f;fill-opacity:1;stroke:none;stroke-width:0.264583px;stroke-linecap:butt;stroke-linejoin:miter;stroke-opacity:1"
         d="m 653.77191,327.16513 c 0,0 -69.52085,-2.35689 -81.16132,-46.34444 -12.04057,-45.49952 2.96149,-71.89495 18.3528,-93.68587 15.3913,-21.79092 12.49432,-38.39041 7.26467,-51.85522 -5.22966,-13.46482 75.96659,-65.70981 74.10813,-76.913144 -2.84408,-17.144996 -1.69203,-18.263498 -0.51676,-22.714374 4.00426,-15.1646 9.06508,-8.519892 29.35118,7.590751 20.28609,16.110643 21.27784,40.695796 11.13114,56.08408 -15.85623,24.047237 31.93673,29.431417 13.17864,68.786297 -8.32955,17.47556 54.68232,38.15488 20.31258,113.7093 -21.53471,47.33937 -92.02106,45.34262 -92.02106,45.34262 z"
         id="path4-6"
         sodipodi:nodetypes="csssssssssc" /><path
         style="fill:#0798d7;fill-opacity:1;stroke:none;stroke-width:1.06736px;stroke-linecap:butt;stroke-linejoin:miter;stroke-opacity:1"
         d="m 581.54399,246.24754 c -6.42849,43.66105 35.59484,75.06841 61.71096,73.97134 40.72276,-1.71067 83.94394,-4.81495 95.0998,-55.28236 11.15576,-50.46739 -24.0768,-62.96736 -28.04957,-75.29399 -3.97273,-12.32661 16.26562,-19.57111 -0.56997,-44.54911 -10.56672,-15.67724 -17.22058,-19.26642 -14.39868,-34.5762 1.80909,-9.81496 15.35948,-13.862319 12.35886,-32.287212 -2.26901,-13.932545 1.88873,4.086158 -8.23369,9.815824 -0.46886,-3.29955 9.83094,-10.725923 -4.84509,-30.292489 -7.7092,-10.27818 -17.73977,-19.290048 -11.66964,1.702074 3.60806,12.477652 -5.38726,22.67056 -27.3118,40.947163 -53.35413,44.47681 12.3931,32.26072 -34.46559,85.38364 -22.98496,26.05767 -34.74941,27.34323 -39.62559,60.46132 z"
         id="path3-7"
         sodipodi:nodetypes="ssssssscsssss" /><path
         style="fill:#30bbf8;fill-opacity:1;stroke:none;stroke-width:0.264583px;stroke-linecap:butt;stroke-linejoin:miter;stroke-opacity:1"
         d="m 601.98271,297.32738 c -5.04554,-2.99342 -18.21843,-26.30881 -9.45674,-50.13975 16.21824,-44.11199 60.83012,-17.3934 55.92489,-89.05712 -2.57658,-37.64296 6.6358,-30.70009 16.5135,-46.43017 9.87769,-15.730062 24.53492,-24.122743 24.25721,-32.854522 -0.27771,-8.731779 -0.65335,-11.448949 -0.65335,-11.448949 0,0 5.23556,25.901548 -3.65992,44.623571 -8.89548,18.72204 6.171,30.65917 6.98805,47.82164 0.81705,17.16246 -7.7861,27.51226 -2.73032,36.86815 5.05578,9.3559 31.7203,24.54077 29.24722,60.07446 -2.47308,35.5337 -4.60267,43.35049 -25.06988,52.05595 -7.22163,3.07163 -57.9741,17.57903 -91.36066,-11.51326 z"
         id="path5-5"
         sodipodi:nodetypes="csssscsssssc" /><path
         style="fill:#56c9fa;fill-opacity:1;stroke:none;stroke-width:0.264583px;stroke-linecap:butt;stroke-linejoin:miter;stroke-opacity:1"
         d="m 604.39203,232.81161 c -0.62736,-11.2882 -2.38522,-25.02669 11.5383,-31.53708 22.49269,-10.51719 16.91267,-24.07812 16.91267,-24.07812 0,0 7.8021,20.3171 0.79374,28.87575 -5.40811,6.60443 -21.31446,12.3424 -29.24471,26.73945 z"
         id="path6-3"
         sodipodi:nodetypes="cscsc" /><path
         style="fill:#56c9fa;fill-opacity:1;stroke:none;stroke-width:0.264583px;stroke-linecap:butt;stroke-linejoin:miter;stroke-opacity:1"
         d="m 656.00127,114.63279 c 0,0 4.92993,-15.28589 3.27629,-19.477881 -1.65365,-4.191992 4.12687,-0.701768 4.12687,5.513871 0,6.21564 -7.40316,13.96401 -7.40316,13.96401 z"
         id="path7-5" /><text
         xml:space="preserve"
         style="font-size:254px;line-height:1.25;font-family:feather;-inkscape-font-specification:feather;fill:#ffffff;fill-opacity:1;stroke-width:0.264583"
         x="587.0459"
         y="283.98718"
         id="text1-6"><tspan
           sodipodi:role="line"
           id="tspan1-2"
           style="font-style:normal;font-variant:normal;font-weight:900;font-stretch:condensed;font-size:254px;font-family:'Nunito Sans 7pt Condensed';-inkscape-font-specification:'Nunito Sans 7pt Condensed,  Heavy Condensed';fill:#ffffff;fill-opacity:1;stroke-width:0.264583"
           x="587.0459"
           y="283.98718">Y</tspan></text><path
         style="fill:none;fill-opacity:1;stroke:#28d6d6;stroke-width:8.30792;stroke-linecap:butt;stroke-linejoin:bevel;stroke-dasharray:none;stroke-opacity:1"
         d="m 657.86978,247.29251 -15.4962,-18.5247 -6.00145,27.74759 32.55927,6.20023 5.36711,-35.14051 -34.42139,-16.39365 -21.08548,22.61727 20.25235,61.88249 54.40772,-27.04892 8.4336,-33.20531"
         id="path8-9"
         sodipodi:nodetypes="cccccccccc" /><path
         style="fill:#8ff5e1;fill-opacity:1;stroke:none;stroke-width:0.264583px;stroke-linecap:butt;stroke-linejoin:miter;stroke-opacity:1"
         d="m 653.7436,244.67619 c 0,0 6.11985,0.10159 5.18148,-7.36588 l -8.63458,-6.74177 -12.27623,-1.39951 -4.28038,28.58802 36.87692,8.6492 8.30445,-40.4403 -39.64984,-20.45633 -27.30398,26.67987 25.61361,69.18626 59.42842,-30.42164 10.19852,-36.56341 -43.92344,-54.65035 9.65333,-54.55827 10.42362,-28.866469 -13.56393,30.179739 -11.75151,54.32514 39.13954,55.56972 -7.9805,28.79923 -47.89909,25.46744 -17.83992,-56.83183 17.68426,-20.33639 29.99557,16.78463 -5.84652,27.8404 -24.37487,-4.38782 1.4397,-16.6845 3.52692,0.49037 z"
         id="path9-1"
         sodipodi:nodetypes="cccccccccccccccccccccccccccc" /></g></g><g
     id="g10"
     transform="translate(-157.42436,-438.54726)"><path
       id="path2"
       style="fill:#0e1418;stroke-width:1.18329;stroke-linejoin:bevel"
       d="M 650.12617,25.674403 A 169.33331,169.33331 0 0 0 491.71466,205.21382 169.33331,169.33331 0 0 0 671.20188,363.68425 169.33331,169.33331 0 0 0 829.73174,184.24973 l -0.014,-0.22376 A 169.33331,169.33331 0 0 0 650.12617,25.674403 Z m -66.89049,79.242707 h 49.02233 l 28.19363,66.03989 h 1.01647 l 28.44788,-66.03989 h 48.2601 l -55.16252,102.09505 -0.20981,76.97514 h -44.70373 v -77.11621 z" /><g
       id="g61"
       style="fill:#2e1b2f;fill-opacity:1"><path
         style="font-weight:900;font-stretch:condensed;font-size:254px;line-height:1.25;font-family:'Nunito Sans 7pt Condensed';-inkscape-font-specification:'Nunito Sans 7pt Condensed,  Heavy Condensed';fill:#2e1b2f;fill-opacity:1;stroke-width:0.264583"
         d="m 723.27881,132.48958 -40.26524,74.52258 -0.20981,76.97514 h -44.70373 v -77.11621 l -39.89524,-74.13708 c -0.25503,1.04264 -0.27005,1.97824 0.0372,2.76934 5.22965,13.4648 8.12661,30.06433 -7.26467,51.85523 -15.3913,21.7909 -30.39344,48.18628 -18.35289,93.68575 11.64046,43.98751 81.16145,46.34446 81.16145,46.34446 0,0 70.48657,1.99687 92.02126,-45.34245 34.3697,-75.55435 -28.64252,-96.23379 -20.31297,-113.70933 7.99058,-16.76442 3.88244,-27.34313 -2.21537,-35.84743 z"
         id="path57" /><path
         style="font-weight:900;font-stretch:condensed;font-size:254px;line-height:1.25;font-family:'Nunito Sans 7pt Condensed';-inkscape-font-specification:'Nunito Sans 7pt Condensed,  Heavy Condensed';fill:#2e1b2f;fill-opacity:1;stroke-width:0.264583"
         d="m 677.53121,27.365255 c -2.54593,0.203777 -4.19624,2.823872 -5.69784,8.510592 -1.17527,4.450871 -2.32731,5.569395 0.51676,22.714374 1.09794,6.618647 -26.66228,27.518347 -48.59393,46.326889 h 8.50181 l 28.19414,66.03989 h 1.01596 l 28.44788,-66.03989 h 19.80757 c 0.52232,-1.69321 1.33905,-3.46626 2.59209,-5.3666 10.14669,-15.388269 9.15497,-39.973286 -11.1311,-56.083913 -12.6788,-10.069141 -19.41012,-16.44097 -23.65334,-16.101342 z"
         id="path51" /></g><path
       style="fill:#0798d7;fill-opacity:1;stroke:none;stroke-width:1.06736px;stroke-linecap:butt;stroke-linejoin:miter;stroke-opacity:1"
       d="m 713.16211,151.21299 -30.14854,55.79917 -0.20981,76.97514 h -44.70373 v -77.11621 l -13.43329,-24.96282 c -1.09653,1.32958 -2.22981,2.68085 -3.48299,4.10156 -22.98494,26.05764 -34.74983,27.34336 -39.626,60.46142 -6.42849,43.66101 35.59486,75.06826 61.71096,73.97119 40.72272,-1.71067 83.94428,-4.81505 95.10013,-55.28241 11.15575,-50.46734 -24.0772,-62.96749 -28.04997,-75.29411 -3.63872,-11.29024 12.95034,-18.35841 2.84324,-38.65293 z"
       id="path62" /><path
       style="fill:#0798d7;fill-opacity:1;stroke:none;stroke-width:1.06736px;stroke-linecap:butt;stroke-linejoin:miter;stroke-opacity:1"
       d="m 682.69627,46.949072 c -1.96519,0.104651 -2.39109,3.545927 0.26459,12.729972 3.60805,12.477639 -5.387,22.670788 -27.31151,40.947366 -8.74659,7.29129 -14.24913,13.03941 -17.61495,17.82114 l 22.41775,52.50945 h 1.01596 l 28.44788,-66.03989 h 8.03 c 4.36926,-6.44815 12.10701,-12.071806 9.76323,-26.463503 -2.26901,-13.932531 1.8888,4.086278 -8.23361,9.815938 -0.46886,-3.299546 9.83083,-10.726176 -4.84518,-30.292723 -4.33642,-5.78147 -9.40748,-11.162301 -11.93416,-11.02775 z"
       id="path23" /><path
       style="fill:#30bbf8;fill-opacity:1;stroke:none;stroke-width:0.264583px;stroke-linecap:butt;stroke-linejoin:miter;stroke-opacity:1"
       d="m 688.853,196.20507 -5.83943,10.80709 -0.20981,76.97514 h -44.70373 v -77.11621 l -0.49609,-0.92191 c -13.2673,13.97744 -34.82211,13.60538 -45.06392,41.46206 -8.76168,23.83092 4.41125,47.14616 9.45679,50.13958 33.38653,29.09226 84.13869,14.58513 91.36031,11.51351 20.46719,-8.70546 22.59723,-16.52259 25.0703,-52.05626 2.47308,-35.53365 -24.19153,-50.71847 -29.24731,-60.07436 -0.13026,-0.24106 -0.21458,-0.48616 -0.32711,-0.72864 z"
       id="path64" /><path
       style="fill:#30bbf8;fill-opacity:1;stroke:none;stroke-width:0.264583px;stroke-linecap:butt;stroke-linejoin:miter;stroke-opacity:1"
       d="m 688.58222,67.620677 c 0,0 0.37548,2.717143 0.65319,11.448913 0.27771,8.731771 -14.37924,17.124282 -24.25692,32.85432 -8.12043,12.93167 -15.77584,10.5911 -16.81654,30.2457 l 12.28969,28.78739 h 1.01647 l 20.7145,-48.0875 c 0.15396,-3.33322 0.93932,-6.83561 2.73988,-10.62519 8.89547,-18.722002 3.65973,-44.623633 3.65973,-44.623633 z"
       id="path24" /><path
       style="fill:#56c9fa;fill-opacity:1;stroke:none;stroke-width:0.264583px;stroke-linecap:butt;stroke-linejoin:miter;stroke-opacity:1"
       d="m 635.68933,202.39126 -5.93866,-11.03551 c -2.58138,3.34452 -6.8482,6.88901 -13.80639,10.14254 -13.92351,6.51038 -12.16567,20.2489 -11.53831,31.53709 7.93024,-14.39704 23.83662,-20.13503 29.24472,-26.73945 0.91904,-1.12234 1.57797,-2.45026 2.03864,-3.90467 z"
       id="path65" /><path
       style="fill:#56c9fa;fill-opacity:1;stroke:none;stroke-width:0.264583px;stroke-linecap:butt;stroke-linejoin:miter;stroke-opacity:1"
       d="m 656.01522,114.85641 c 0,0 4.92993,-15.285886 3.27629,-19.477877 -1.65365,-4.191992 4.12687,-0.701768 4.12687,5.513867 0,6.21564 -7.40316,13.96401 -7.40316,13.96401 z"
       id="path26" /><g
       id="g11"><path
         style="fill:none;fill-opacity:1;stroke:#28d6d6;stroke-width:8.30792;stroke-linecap:butt;stroke-linejoin:bevel;stroke-dasharray:none;stroke-opacity:1"
         d="m 657.86978,247.29251 -15.4962,-18.5247 -6.00145,27.74759 32.55927,6.20023 5.36711,-35.14051 -34.42139,-16.39365 -21.08548,22.61727 20.25235,61.88249 54.40772,-27.04892 8.4336,-33.20531"
         id="path9"
         sodipodi:nodetypes="cccccccccc" /><path
         style="fill:#8ff5e1;fill-opacity:1;stroke:none;stroke-width:0.264583px;stroke-linecap:butt;stroke-linejoin:miter;stroke-opacity:1"
         d="m 653.7436,244.67619 c 0,0 6.11985,0.10159 5.18148,-7.36588 l -8.63458,-6.74177 -12.27623,-1.39951 -4.28038,28.58802 36.87692,8.6492 8.30445,-40.4403 -39.64984,-20.45633 -27.30398,26.67987 25.61361,69.18626 59.42842,-30.42164 10.19852,-36.56341 -43.92344,-54.65035 9.65333,-54.55827 10.42362,-28.866469 -13.56393,30.179739 -11.75151,54.32514 39.13954,55.56972 -7.9805,28.79923 -47.89909,25.46744 -17.83992,-56.83183 17.68426,-20.33639 29.99557,16.78463 -5.84652,27.8404 -24.37487,-4.38782 1.4397,-16.6845 3.52692,0.49037 z"
         id="path10"
         sodipodi:nodetypes="cccccccccccccccccccccccccccc" /></g></g><g
     id="g2"
     transform="translate(-382.43844,-5.2852545)"><path
       style="fill:#0e1418;fill-opacity:1;stroke-width:1.18329;stroke-linejoin:bevel"
       id="path1"
       sodipodi:type="arc"
       sodipodi:cx="169.33331"
       sodipodi:cy="169.33331"
       sodipodi:rx="169.33331"
       sodipodi:ry="169.33331"
       sodipodi:start="6.2215752"
       sodipodi:end="6.2202521"
       sodipodi:open="true"
       sodipodi:arc-type="arc"
       d="M 338.34535,158.90727 A 169.33331,169.33331 0 0 1 179.81526,338.34189 169.33331,169.33331 0 0 1 0.32821083,179.87117 169.33331,169.33331 0 0 1 158.73956,0.33170574 169.33331,169.33331 0 0 1 338.33141,158.68366" /><path
       id="path4-67-6"
       style="fill:#ffffff;fill-opacity:1;stroke:none;stroke-width:0.264583px;stroke-linecap:butt;stroke-linejoin:miter;stroke-opacity:1"
       d="m 186.14473,2.0231825 c -2.54593,0.20378 -4.19625,2.82336 -5.69784,8.5100795 -1.17527,4.45087 -2.32731,5.56939 0.51676,22.71437 1.85846,11.20332 -79.33779,63.44833 -74.10813,76.913138 5.22964,13.4648 8.12662,30.06433 -7.264668,51.85523 -15.391306,21.7909 -30.393466,48.18628 -18.352896,93.68575 11.64045,43.98751 81.161454,46.34446 81.161454,46.34446 0,0 70.48657,1.99687 92.02125,-45.34245 34.36971,-75.55435 -28.64251,-96.23379 -20.31297,-113.70933 18.75807,-39.35485 -29.03473,-44.739288 -13.17852,-68.786508 10.14669,-15.38827 9.15497,-39.97329 -11.1311,-56.08391 C 197.11927,8.0548725 190.38795,1.6835525 186.14473,2.0231825 Z m 5.16506,19.5838195 c 2.52668,-0.13455 7.59773,5.24628 11.93415,11.02775 14.67602,19.56655 4.37633,26.99266 4.84519,30.2922 10.12241,-5.72965 5.96459,-23.74846 8.2336,-9.81593 3.00062,18.42487 -10.54984,22.47249 -12.35893,32.28743 -2.8219,15.309778 8.40233,12.82104 14.98085,30.545428 7.43932,20.04362 -2.04047,21.5507 0.81899,36.87158 2.37612,12.73116 38.37447,36.53465 27.21872,87.00199 -11.15585,50.46736 -69.00828,54.25991 -98.3554,49.67184 -30.9465,-4.83813 -59.981444,-20.42956 -58.455694,-63.79616 1.17702,-33.45441 16.641064,-38.96824 39.626004,-65.02588 46.85864,-53.12287 -18.88848,-40.90666 34.46559,-85.383428 21.92452,-18.27659 30.91957,-28.46973 27.31151,-40.94737 -2.65568,-9.18404 -2.22978,-12.6248 -0.26458,-12.72945 z"
       sodipodi:nodetypes="sssssscssssssscsssscssssss"
       transform="translate(-1.3875429e-6)" /><path
       style="font-weight:900;font-stretch:condensed;font-size:254px;line-height:1.25;font-family:'Nunito Sans 7pt Condensed';-inkscape-font-specification:'Nunito Sans 7pt Condensed,  Heavy Condensed';fill:#ffffff;stroke-width:0.264583"
       d="m 146.72732,258.86832 v -93.218 l 7.874,30.734 L 91.863317,79.798317 h 49.022003 l 28.194,66.040003 h 1.016 l 28.448,-66.040003 h 48.26 l -62.992,116.586003 7.874,-30.734 -0.254,93.218 z"
       id="text1"
       aria-label="Y" /></g><g
     id="g77"
     transform="translate(-496.09092,-362.80368)"
     inkscape:export-filename="../../../../../g77.png"
     inkscape:export-xdpi="96"
     inkscape:export-ydpi="96"><path
       id="path66"
       style="fill:#0e1418;fill-opacity:0;stroke-width:1.18329;stroke-linejoin:bevel"
       d="M 650.12617,25.674403 A 169.33331,169.33331 0 0 0 491.71466,205.21382 169.33331,169.33331 0 0 0 671.20188,363.68425 169.33331,169.33331 0 0 0 829.73174,184.24973 l -0.014,-0.22376 A 169.33331,169.33331 0 0 0 650.12617,25.674403 Z m -66.89049,79.242707 h 49.02233 l 28.19363,66.03989 h 1.01647 l 28.44788,-66.03989 h 48.2601 l -55.16252,102.09505 -0.20981,76.97514 h -44.70373 v -77.11621 z" /><g
       id="g68"
       style="fill:#2e1b2f;fill-opacity:1"><path
         style="font-weight:900;font-stretch:condensed;font-size:254px;line-height:1.25;font-family:'Nunito Sans 7pt Condensed';-inkscape-font-specification:'Nunito Sans 7pt Condensed,  Heavy Condensed';fill:#2e1b2f;fill-opacity:1;stroke-width:0.264583"
         d="m 723.27881,132.48958 -40.26524,74.52258 -0.20981,76.97514 h -44.70373 v -77.11621 l -39.89524,-74.13708 c -0.25503,1.04264 -0.27005,1.97824 0.0372,2.76934 5.22965,13.4648 8.12661,30.06433 -7.26467,51.85523 -15.3913,21.7909 -30.39344,48.18628 -18.35289,93.68575 11.64046,43.98751 81.16145,46.34446 81.16145,46.34446 0,0 70.48657,1.99687 92.02126,-45.34245 34.3697,-75.55435 -28.64252,-96.23379 -20.31297,-113.70933 7.99058,-16.76442 3.88244,-27.34313 -2.21537,-35.84743 z"
         id="path67" /><path
         style="font-weight:900;font-stretch:condensed;font-size:254px;line-height:1.25;font-family:'Nunito Sans 7pt Condensed';-inkscape-font-specification:'Nunito Sans 7pt Condensed,  Heavy Condensed';fill:#2e1b2f;fill-opacity:1;stroke-width:0.264583"
         d="m 677.53121,27.365255 c -2.54593,0.203777 -4.19624,2.823872 -5.69784,8.510592 -1.17527,4.450871 -2.32731,5.569395 0.51676,22.714374 1.09794,6.618647 -26.66228,27.518347 -48.59393,46.326889 h 8.50181 l 28.19414,66.03989 h 1.01596 l 28.44788,-66.03989 h 19.80757 c 0.52232,-1.69321 1.33905,-3.46626 2.59209,-5.3666 10.14669,-15.388269 9.15497,-39.973286 -11.1311,-56.083913 -12.6788,-10.069141 -19.41012,-16.44097 -23.65334,-16.101342 z"
         id="path68" /></g><path
       style="fill:#0798d7;fill-opacity:1;stroke:none;stroke-width:1.06736px;stroke-linecap:butt;stroke-linejoin:miter;stroke-opacity:1"
       d="m 713.16211,151.21299 -30.14854,55.79917 -0.20981,76.97514 h -44.70373 v -77.11621 l -13.43329,-24.96282 c -1.09653,1.32958 -2.22981,2.68085 -3.48299,4.10156 -22.98494,26.05764 -34.74983,27.34336 -39.626,60.46142 -6.42849,43.66101 35.59486,75.06826 61.71096,73.97119 40.72272,-1.71067 83.94428,-4.81505 95.10013,-55.28241 11.15575,-50.46734 -24.0772,-62.96749 -28.04997,-75.29411 -3.63872,-11.29024 12.95034,-18.35841 2.84324,-38.65293 z"
       id="path69" /><path
       style="fill:#0798d7;fill-opacity:1;stroke:none;stroke-width:1.06736px;stroke-linecap:butt;stroke-linejoin:miter;stroke-opacity:1"
       d="m 682.69627,46.949072 c -1.96519,0.104651 -2.39109,3.545927 0.26459,12.729972 3.60805,12.477639 -5.387,22.670788 -27.31151,40.947366 -8.74659,7.29129 -14.24913,13.03941 -17.61495,17.82114 l 22.41775,52.50945 h 1.01596 l 28.44788,-66.03989 h 8.03 c 4.36926,-6.44815 12.10701,-12.071806 9.76323,-26.463503 -2.26901,-13.932531 1.8888,4.086278 -8.23361,9.815938 -0.46886,-3.299546 9.83083,-10.726176 -4.84518,-30.292723 -4.33642,-5.78147 -9.40748,-11.162301 -11.93416,-11.02775 z"
       id="path70" /><path
       style="fill:#30bbf8;fill-opacity:1;stroke:none;stroke-width:0.264583px;stroke-linecap:butt;stroke-linejoin:miter;stroke-opacity:1"
       d="m 688.853,196.20507 -5.83943,10.80709 -0.20981,76.97514 h -44.70373 v -77.11621 l -0.49609,-0.92191 c -13.2673,13.97744 -34.82211,13.60538 -45.06392,41.46206 -8.76168,23.83092 4.41125,47.14616 9.45679,50.13958 33.38653,29.09226 84.13869,14.58513 91.36031,11.51351 20.46719,-8.70546 22.59723,-16.52259 25.0703,-52.05626 2.47308,-35.53365 -24.19153,-50.71847 -29.24731,-60.07436 -0.13026,-0.24106 -0.21458,-0.48616 -0.32711,-0.72864 z"
       id="path71" /><path
       style="fill:#30bbf8;fill-opacity:1;stroke:none;stroke-width:0.264583px;stroke-linecap:butt;stroke-linejoin:miter;stroke-opacity:1"
       d="m 688.58222,67.620677 c 0,0 0.37548,2.717143 0.65319,11.448913 0.27771,8.731771 -14.37924,17.124282 -24.25692,32.85432 -8.12043,12.93167 -15.77584,10.5911 -16.81654,30.2457 l 12.28969,28.78739 h 1.01647 l 20.7145,-48.0875 c 0.15396,-3.33322 0.93932,-6.83561 2.73988,-10.62519 8.89547,-18.722002 3.65973,-44.623633 3.65973,-44.623633 z"
       id="path72" /><path
       style="fill:#56c9fa;fill-opacity:1;stroke:none;stroke-width:0.264583px;stroke-linecap:butt;stroke-linejoin:miter;stroke-opacity:1"
       d="m 635.68933,202.39126 -5.93866,-11.03551 c -2.58138,3.34452 -6.8482,6.88901 -13.80639,10.14254 -13.92351,6.51038 -12.16567,20.2489 -11.53831,31.53709 7.93024,-14.39704 23.83662,-20.13503 29.24472,-26.73945 0.91904,-1.12234 1.57797,-2.45026 2.03864,-3.90467 z"
       id="path73" /><path
       style="fill:#56c9fa;fill-opacity:1;stroke:none;stroke-width:0.264583px;stroke-linecap:butt;stroke-linejoin:miter;stroke-opacity:1"
       d="m 656.01522,114.85641 c 0,0 4.92993,-15.285886 3.27629,-19.477877 -1.65365,-4.191992 4.12687,-0.701768 4.12687,5.513867 0,6.21564 -7.40316,13.96401 -7.40316,13.96401 z"
       id="path74" /><g
       id="g76"><path
         style="fill:none;fill-opacity:1;stroke:#28d6d6;stroke-width:8.30792;stroke-linecap:butt;stroke-linejoin:bevel;stroke-dasharray:none;stroke-opacity:1"
         d="m 657.86978,247.29251 -15.4962,-18.5247 -6.00145,27.74759 32.55927,6.20023 5.36711,-35.14051 -34.42139,-16.39365 -21.08548,22.61727 20.25235,61.88249 54.40772,-27.04892 8.4336,-33.20531"
         id="path75"
         sodipodi:nodetypes="cccccccccc" /><path
         style="fill:#8ff5e1;fill-opacity:1;stroke:none;stroke-width:0.264583px;stroke-linecap:butt;stroke-linejoin:miter;stroke-opacity:1"
         d="m 653.7436,244.67619 c 0,0 6.11985,0.10159 5.18148,-7.36588 l -8.63458,-6.74177 -12.27623,-1.39951 -4.28038,28.58802 36.87692,8.6492 8.30445,-40.4403 -39.64984,-20.45633 -27.30398,26.67987 25.61361,69.18626 59.42842,-30.42164 10.19852,-36.56341 -43.92344,-54.65035 9.65333,-54.55827 10.42362,-28.866469 -13.56393,30.179739 -11.75151,54.32514 39.13954,55.56972 -7.9805,28.79923 -47.89909,25.46744 -17.83992,-56.83183 17.68426,-20.33639 29.99557,16.78463 -5.84652,27.8404 -24.37487,-4.38782 1.4397,-16.6845 3.52692,0.49037 z"
         id="path76"
         sodipodi:nodetypes="cccccccccccccccccccccccccccc" /></g></g><g
     id="g14"
     transform="translate(-135.01145,-12.3636)"
     inkscape:export-filename="../../../../../g14.png"
     inkscape:export-xdpi="96"
     inkscape:export-ydpi="96"><path
       style="fill:#000000;fill-opacity:0;stroke-width:1.18329;stroke-linejoin:bevel"
       id="path3"
       sodipodi:type="arc"
       sodipodi:cx="660.70587"
       sodipodi:cy="194.45219"
       sodipodi:rx="169.33331"
       sodipodi:ry="169.33331"
       sodipodi:start="6.2215752"
       sodipodi:end="6.2202521"
       sodipodi:open="true"
       sodipodi:arc-type="arc"
       d="M 829.71791,184.02615 A 169.33331,169.33331 0 0 1 671.18782,363.46077 169.33331,169.33331 0 0 1 491.70077,204.99005 169.33331,169.33331 0 0 1 650.11212,25.450587 169.33331,169.33331 0 0 1 829.70397,183.80254" /><g
       id="g13"><path
         style="fill:#2e1b2f;fill-opacity:1;stroke:none;stroke-width:0.264583px;stroke-linecap:butt;stroke-linejoin:miter;stroke-opacity:1"
         d="m 653.77191,327.16513 c 0,0 -69.52085,-2.35689 -81.16132,-46.34444 -12.04057,-45.49952 2.96149,-71.89495 18.3528,-93.68587 15.3913,-21.79092 12.49432,-38.39041 7.26467,-51.85522 -5.22966,-13.46482 75.96659,-65.70981 74.10813,-76.913144 -2.84408,-17.144996 -1.69203,-18.263498 -0.51676,-22.714374 4.00426,-15.1646 9.06508,-8.519892 29.35118,7.590751 20.28609,16.110643 21.27784,40.695796 11.13114,56.08408 -15.85623,24.047237 31.93673,29.431417 13.17864,68.786297 -8.32955,17.47556 54.68232,38.15488 20.31258,113.7093 -21.53471,47.33937 -92.02106,45.34262 -92.02106,45.34262 z"
         id="path5"
         sodipodi:nodetypes="csssssssssc" /><path
         style="fill:#0798d7;fill-opacity:1;stroke:none;stroke-width:1.06736px;stroke-linecap:butt;stroke-linejoin:miter;stroke-opacity:1"
         d="m 581.54399,246.24754 c -6.42849,43.66105 35.59484,75.06841 61.71096,73.97134 40.72276,-1.71067 83.94394,-4.81495 95.0998,-55.28236 11.15576,-50.46739 -24.0768,-62.96736 -28.04957,-75.29399 -3.97273,-12.32661 16.26562,-19.57111 -0.56997,-44.54911 -10.56672,-15.67724 -17.22058,-19.26642 -14.39868,-34.5762 1.80909,-9.81496 15.35948,-13.862319 12.35886,-32.287212 -2.26901,-13.932545 1.88873,4.086158 -8.23369,9.815824 -0.46886,-3.29955 9.83094,-10.725923 -4.84509,-30.292489 -7.7092,-10.27818 -17.73977,-19.290048 -11.66964,1.702074 3.60806,12.477652 -5.38726,22.67056 -27.3118,40.947163 -53.35413,44.47681 12.3931,32.26072 -34.46559,85.38364 -22.98496,26.05767 -34.74941,27.34323 -39.62559,60.46132 z"
         id="path6"
         sodipodi:nodetypes="ssssssscsssss" /><path
         style="fill:#30bbf8;fill-opacity:1;stroke:none;stroke-width:0.264583px;stroke-linecap:butt;stroke-linejoin:miter;stroke-opacity:1"
         d="m 601.98271,297.32738 c -5.04554,-2.99342 -18.21843,-26.30881 -9.45674,-50.13975 16.21824,-44.11199 60.83012,-17.3934 55.92489,-89.05712 -2.57658,-37.64296 6.6358,-30.70009 16.5135,-46.43017 9.87769,-15.730062 24.53492,-24.122743 24.25721,-32.854522 -0.27771,-8.731779 -0.65335,-11.448949 -0.65335,-11.448949 0,0 5.23556,25.901548 -3.65992,44.623571 -8.89548,18.72204 6.171,30.65917 6.98805,47.82164 0.81705,17.16246 -7.7861,27.51226 -2.73032,36.86815 5.05578,9.3559 31.7203,24.54077 29.24722,60.07446 -2.47308,35.5337 -4.60267,43.35049 -25.06988,52.05595 -7.22163,3.07163 -57.9741,17.57903 -91.36066,-11.51326 z"
         id="path7"
         sodipodi:nodetypes="csssscsssssc" /><path
         style="fill:#56c9fa;fill-opacity:1;stroke:none;stroke-width:0.264583px;stroke-linecap:butt;stroke-linejoin:miter;stroke-opacity:1"
         d="m 604.39203,232.81161 c -0.62736,-11.2882 -2.38522,-25.02669 11.5383,-31.53708 22.49269,-10.51719 16.91267,-24.07812 16.91267,-24.07812 0,0 7.8021,20.3171 0.79374,28.87575 -5.40811,6.60443 -21.31446,12.3424 -29.24471,26.73945 z"
         id="path8"
         sodipodi:nodetypes="cscsc" /><path
         style="fill:#56c9fa;fill-opacity:1;stroke:none;stroke-width:0.264583px;stroke-linecap:butt;stroke-linejoin:miter;stroke-opacity:1"
         d="m 656.00127,114.63279 c 0,0 4.92993,-15.28589 3.27629,-19.477881 -1.65365,-4.191992 4.12687,-0.701768 4.12687,5.513871 0,6.21564 -7.40316,13.96401 -7.40316,13.96401 z"
         id="path11" /><text
         xml:space="preserve"
         style="font-size:254px;line-height:1.25;font-family:feather;-inkscape-font-specification:feather;fill:#ffffff;fill-opacity:1;stroke-width:0.264583"
         x="587.0459"
         y="283.98718"
         id="text11"><tspan
           sodipodi:role="line"
           id="tspan11"
           style="font-style:normal;font-variant:normal;font-weight:900;font-stretch:condensed;font-size:254px;font-family:'Nunito Sans 7pt Condensed';-inkscape-font-specification:'Nunito Sans 7pt Condensed,  Heavy Condensed';fill:#ffffff;fill-opacity:1;stroke-width:0.264583"
           x="587.0459"
           y="283.98718">Y</tspan></text><path
         style="fill:none;fill-opacity:1;stroke:#28d6d6;stroke-width:8.30792;stroke-linecap:butt;stroke-linejoin:bevel;stroke-dasharray:none;stroke-opacity:1"
         d="m 657.86978,247.29251 -15.4962,-18.5247 -6.00145,27.74759 32.55927,6.20023 5.36711,-35.14051 -34.42139,-16.39365 -21.08548,22.61727 20.25235,61.88249 54.40772,-27.04892 8.4336,-33.20531"
         id="path12"
         sodipodi:nodetypes="cccccccccc" /><path
         style="fill:#8ff5e1;fill-opacity:1;stroke:none;stroke-width:0.264583px;stroke-linecap:butt;stroke-linejoin:miter;stroke-opacity:1"
         d="m 653.7436,244.67619 c 0,0 6.11985,0.10159 5.18148,-7.36588 l -8.63458,-6.74177 -12.27623,-1.39951 -4.28038,28.58802 36.87692,8.6492 8.30445,-40.4403 -39.64984,-20.45633 -27.30398,26.67987 25.61361,69.18626 59.42842,-30.42164 10.19852,-36.56341 -43.92344,-54.65035 9.65333,-54.55827 10.42362,-28.866469 -13.56393,30.179739 -11.75151,54.32514 39.13954,55.56972 -7.9805,28.79923 -47.89909,25.46744 -17.83992,-56.83183 17.68426,-20.33639 29.99557,16.78463 -5.84652,27.8404 -24.37487,-4.38782 1.4397,-16.6845 3.52692,0.49037 z"
         id="path13"
         sodipodi:nodetypes="cccccccccccccccccccccccccccc" /></g></g><g
     id="g22"
     transform="translate(-115.06893,355.91004)"><path
       style="fill:#0e1418;fill-opacity:1;stroke-width:1.18329;stroke-linejoin:bevel"
       id="path14"
       sodipodi:type="arc"
       sodipodi:cx="660.70587"
       sodipodi:cy="194.45219"
       sodipodi:rx="169.33331"
       sodipodi:ry="169.33331"
       sodipodi:start="6.2215752"
       sodipodi:end="6.2202521"
       sodipodi:open="true"
       sodipodi:arc-type="arc"
       d="M 829.71791,184.02615 A 169.33331,169.33331 0 0 1 671.18782,363.46077 169.33331,169.33331 0 0 1 491.70077,204.99005 169.33331,169.33331 0 0 1 650.11212,25.450587 169.33331,169.33331 0 0 1 829.70397,183.80254" /><g
       id="g21"><path
         style="fill:#2f1b1b;fill-opacity:1;stroke:none;stroke-width:0.264583px;stroke-linecap:butt;stroke-linejoin:miter;stroke-opacity:1"
         d="m 653.77191,327.16513 c 0,0 -69.52085,-2.35689 -81.16132,-46.34444 -12.04057,-45.49952 2.96149,-71.89495 18.3528,-93.68587 15.3913,-21.79092 12.49432,-38.39041 7.26467,-51.85522 -5.22966,-13.46482 75.96659,-65.70981 74.10813,-76.913144 -2.84408,-17.144996 -1.69203,-18.263498 -0.51676,-22.714374 4.00426,-15.1646 9.06508,-8.519892 29.35118,7.590751 20.28609,16.110643 21.27784,40.695796 11.13114,56.08408 -15.85623,24.047237 31.93673,29.431417 13.17864,68.786297 -8.32955,17.47556 54.68232,38.15488 20.31258,113.7093 -21.53471,47.33937 -92.02106,45.34262 -92.02106,45.34262 z"
         id="path15"
         sodipodi:nodetypes="csssssssssc" /><path
         style="fill:#e68c07;fill-opacity:1;stroke:none;stroke-width:1.06736px;stroke-linecap:butt;stroke-linejoin:miter;stroke-opacity:1"
         d="m 581.54399,246.24754 c -6.42849,43.66105 35.59484,75.06841 61.71096,73.97134 40.72276,-1.71067 83.94394,-4.81495 95.0998,-55.28236 11.15576,-50.46739 -24.0768,-62.96736 -28.04957,-75.29399 -3.97273,-12.32661 16.26562,-19.57111 -0.56997,-44.54911 -10.56672,-15.67724 -17.22058,-19.26642 -14.39868,-34.5762 1.80909,-9.81496 15.35948,-13.862319 12.35886,-32.287212 -2.26901,-13.932545 1.88873,4.086158 -8.23369,9.815824 -0.46886,-3.29955 9.83094,-10.725923 -4.84509,-30.292489 -7.7092,-10.27818 -17.73977,-19.290048 -11.66964,1.702074 3.60806,12.477652 -5.38726,22.67056 -27.3118,40.947163 -53.35413,44.47681 12.3931,32.26072 -34.46559,85.38364 -22.98496,26.05767 -34.74941,27.34323 -39.62559,60.46132 z"
         id="path16"
         sodipodi:nodetypes="ssssssscsssss" /><path
         style="fill:#f8be30;fill-opacity:1;stroke:none;stroke-width:0.264583px;stroke-linecap:butt;stroke-linejoin:miter;stroke-opacity:1"
         d="m 601.98271,297.32738 c -5.04554,-2.99342 -18.21843,-26.30881 -9.45674,-50.13975 16.21824,-44.11199 60.83012,-17.3934 55.92489,-89.05712 -2.57658,-37.64296 6.6358,-30.70009 16.5135,-46.43017 9.87769,-15.730062 24.53492,-24.122743 24.25721,-32.854522 -0.27771,-8.731779 -0.65335,-11.448949 -0.65335,-11.448949 0,0 5.23556,25.901548 -3.65992,44.623571 -8.89548,18.72204 6.171,30.65917 6.98805,47.82164 0.81705,17.16246 -7.7861,27.51226 -2.73032,36.86815 5.05578,9.3559 31.7203,24.54077 29.24722,60.07446 -2.47308,35.5337 -4.60267,43.35049 -25.06988,52.05595 -7.22163,3.07163 -57.9741,17.57903 -91.36066,-11.51326 z"
         id="path17"
         sodipodi:nodetypes="csssscsssssc" /><path
         style="fill:#fad056;fill-opacity:1;stroke:none;stroke-width:0.264583px;stroke-linecap:butt;stroke-linejoin:miter;stroke-opacity:1"
         d="m 604.39203,232.81161 c -0.62736,-11.2882 -2.38522,-25.02669 11.5383,-31.53708 22.49269,-10.51719 16.91267,-24.07812 16.91267,-24.07812 0,0 7.8021,20.3171 0.79374,28.87575 -5.40811,6.60443 -21.31446,12.3424 -29.24471,26.73945 z"
         id="path18"
         sodipodi:nodetypes="cscsc" /><path
         style="fill:#fad056;fill-opacity:1;stroke:none;stroke-width:0.264583px;stroke-linecap:butt;stroke-linejoin:miter;stroke-opacity:1"
         d="m 656.00127,114.63279 c 0,0 4.92993,-15.28589 3.27629,-19.477881 -1.65365,-4.191992 4.12687,-0.701768 4.12687,5.513871 0,6.21564 -7.40316,13.96401 -7.40316,13.96401 z"
         id="path19" /><text
         xml:space="preserve"
         style="font-size:254px;line-height:1.25;font-family:feather;-inkscape-font-specification:feather;fill:#ffffff;fill-opacity:1;stroke-width:0.264583"
         x="587.0459"
         y="283.98718"
         id="text19"><tspan
           sodipodi:role="line"
           id="tspan19"
           style="font-style:normal;font-variant:normal;font-weight:900;font-stretch:condensed;font-size:254px;font-family:'Nunito Sans 7pt Condensed';-inkscape-font-specification:'Nunito Sans 7pt Condensed,  Heavy Condensed';fill:#ffffff;fill-opacity:1;stroke-width:0.264583"
           x="587.0459"
           y="283.98718">Y</tspan></text><path
         style="fill:none;fill-opacity:1;stroke:#d6cd28;stroke-width:8.30792;stroke-linecap:butt;stroke-linejoin:bevel;stroke-dasharray:none;stroke-opacity:1"
         d="m 657.86978,247.29251 -15.4962,-18.5247 -6.00145,27.74759 32.55927,6.20023 5.36711,-35.14051 -34.42139,-16.39365 -21.08548,22.61727 20.25235,61.88249 54.40772,-27.04892 8.4336,-33.20531"
         id="path20"
         sodipodi:nodetypes="cccccccccc" /><path
         style="fill:#f5ef8f;fill-opacity:1;stroke:none;stroke-width:0.264583px;stroke-linecap:butt;stroke-linejoin:miter;stroke-opacity:1"
         d="m 653.7436,244.67619 c 0,0 6.11985,0.10159 5.18148,-7.36588 l -8.63458,-6.74177 -12.27623,-1.39951 -4.28038,28.58802 36.87692,8.6492 8.30445,-40.4403 -39.64984,-20.45633 -27.30398,26.67987 25.61361,69.18626 59.42842,-30.42164 10.19852,-36.56341 -43.92344,-54.65035 9.65333,-54.55827 10.42362,-28.866469 -13.56393,30.179739 -11.75151,54.32514 39.13954,55.56972 -7.9805,28.79923 -47.89909,25.46744 -17.83992,-56.83183 17.68426,-20.33639 29.99557,16.78463 -5.84652,27.8404 -24.37487,-4.38782 1.4397,-16.6845 3.52692,0.49037 z"
         id="path21"
         sodipodi:nodetypes="cccccccccccccccccccccccccccc" /></g></g><g
     id="g33"
     transform="translate(-902.48541,355.91004)"><path
       style="fill:#0e1418;fill-opacity:1;stroke-width:1.18329;stroke-linejoin:bevel"
       id="path22"
       sodipodi:type="arc"
       sodipodi:cx="660.70587"
       sodipodi:cy="194.45219"
       sodipodi:rx="169.33331"
       sodipodi:ry="169.33331"
       sodipodi:start="6.2215752"
       sodipodi:end="6.2202521"
       sodipodi:open="true"
       sodipodi:arc-type="arc"
       d="M 829.71791,184.02615 A 169.33331,169.33331 0 0 1 671.18782,363.46077 169.33331,169.33331 0 0 1 491.70077,204.99005 169.33331,169.33331 0 0 1 650.11212,25.450587 169.33331,169.33331 0 0 1 829.70397,183.80254" /><g
       id="g32"><path
         style="fill:#1b1b1b;fill-opacity:1;stroke:none;stroke-width:0.264583px;stroke-linecap:butt;stroke-linejoin:miter;stroke-opacity:1"
         d="m 653.77191,327.16513 c 0,0 -69.52085,-2.35689 -81.16132,-46.34444 -12.04057,-45.49952 2.96149,-71.89495 18.3528,-93.68587 15.3913,-21.79092 12.49432,-38.39041 7.26467,-51.85522 -5.22966,-13.46482 75.96659,-65.70981 74.10813,-76.913144 -2.84408,-17.144996 -1.69203,-18.263498 -0.51676,-22.714374 4.00426,-15.1646 9.06508,-8.519892 29.35118,7.590751 20.28609,16.110643 21.27784,40.695796 11.13114,56.08408 -15.85623,24.047237 31.93673,29.431417 13.17864,68.786297 -8.32955,17.47556 54.68232,38.15488 20.31258,113.7093 -21.53471,47.33937 -92.02106,45.34262 -92.02106,45.34262 z"
         id="path25"
         sodipodi:nodetypes="csssssssssc" /><path
         style="fill:#464646;fill-opacity:1;stroke:none;stroke-width:1.06736px;stroke-linecap:butt;stroke-linejoin:miter;stroke-opacity:1"
         d="m 581.54399,246.24754 c -6.42849,43.66105 35.59484,75.06841 61.71096,73.97134 40.72276,-1.71067 83.94394,-4.81495 95.0998,-55.28236 11.15576,-50.46739 -24.0768,-62.96736 -28.04957,-75.29399 -3.97273,-12.32661 16.26562,-19.57111 -0.56997,-44.54911 -10.56672,-15.67724 -17.22058,-19.26642 -14.39868,-34.5762 1.80909,-9.81496 15.35948,-13.862319 12.35886,-32.287212 -2.26901,-13.932545 1.88873,4.086158 -8.23369,9.815824 -0.46886,-3.29955 9.83094,-10.725923 -4.84509,-30.292489 -7.7092,-10.27818 -17.73977,-19.290048 -11.66964,1.702074 3.60806,12.477652 -5.38726,22.67056 -27.3118,40.947163 -53.35413,44.47681 12.3931,32.26072 -34.46559,85.38364 -22.98496,26.05767 -34.74941,27.34323 -39.62559,60.46132 z"
         id="path27"
         sodipodi:nodetypes="ssssssscsssss" /><path
         style="fill:#7e7e7e;fill-opacity:1;stroke:none;stroke-width:0.264583px;stroke-linecap:butt;stroke-linejoin:miter;stroke-opacity:1"
         d="m 601.98271,297.32738 c -5.04554,-2.99342 -18.21843,-26.30881 -9.45674,-50.13975 16.21824,-44.11199 60.83012,-17.3934 55.92489,-89.05712 -2.57658,-37.64296 6.6358,-30.70009 16.5135,-46.43017 9.87769,-15.730062 24.53492,-24.122743 24.25721,-32.854522 -0.27771,-8.731779 -0.65335,-11.448949 -0.65335,-11.448949 0,0 5.23556,25.901548 -3.65992,44.623571 -8.89548,18.72204 6.171,30.65917 6.98805,47.82164 0.81705,17.16246 -7.7861,27.51226 -2.73032,36.86815 5.05578,9.3559 31.7203,24.54077 29.24722,60.07446 -2.47308,35.5337 -4.60267,43.35049 -25.06988,52.05595 -7.22163,3.07163 -57.9741,17.57903 -91.36066,-11.51326 z"
         id="path28"
         sodipodi:nodetypes="csssscsssssc" /><path
         style="fill:#a8a8a8;fill-opacity:1;stroke:none;stroke-width:0.264583px;stroke-linecap:butt;stroke-linejoin:miter;stroke-opacity:1"
         d="m 604.39203,232.81161 c -0.62736,-11.2882 -2.38522,-25.02669 11.5383,-31.53708 22.49269,-10.51719 16.91267,-24.07812 16.91267,-24.07812 0,0 7.8021,20.3171 0.79374,28.87575 -5.40811,6.60443 -21.31446,12.3424 -29.24471,26.73945 z"
         id="path29"
         sodipodi:nodetypes="cscsc" /><path
         style="fill:#a8a8a8;fill-opacity:1;stroke:none;stroke-width:0.264583px;stroke-linecap:butt;stroke-linejoin:miter;stroke-opacity:1"
         d="m 656.00127,114.63279 c 0,0 4.92993,-15.28589 3.27629,-19.477881 -1.65365,-4.191992 4.12687,-0.701768 4.12687,5.513871 0,6.21564 -7.40316,13.96401 -7.40316,13.96401 z"
         id="path30" /><text
         xml:space="preserve"
         style="font-size:254px;line-height:1.25;font-family:feather;-inkscape-font-specification:feather;fill:#ffffff;fill-opacity:1;stroke-width:0.264583"
         x="587.0459"
         y="283.98718"
         id="text30"><tspan
           sodipodi:role="line"
           id="tspan30"
           style="font-style:normal;font-variant:normal;font-weight:900;font-stretch:condensed;font-size:254px;font-family:'Nunito Sans 7pt Condensed';-inkscape-font-specification:'Nunito Sans 7pt Condensed,  Heavy Condensed';fill:#ffffff;fill-opacity:1;stroke-width:0.264583"
           x="587.0459"
           y="283.98718">Y</tspan></text><path
         style="fill:none;fill-opacity:1;stroke:#a1a1a1;stroke-width:8.30792;stroke-linecap:butt;stroke-linejoin:bevel;stroke-dasharray:none;stroke-opacity:1"
         d="m 657.86978,247.29251 -15.4962,-18.5247 -6.00145,27.74759 32.55927,6.20023 5.36711,-35.14051 -34.42139,-16.39365 -21.08548,22.61727 20.25235,61.88249 54.40772,-27.04892 8.4336,-33.20531"
         id="path31"
         sodipodi:nodetypes="cccccccccc" /><path
         style="fill:#c2c2c2;fill-opacity:1;stroke:none;stroke-width:0.264583px;stroke-linecap:butt;stroke-linejoin:miter;stroke-opacity:1"
         d="m 653.7436,244.67619 c 0,0 6.11985,0.10159 5.18148,-7.36588 l -8.63458,-6.74177 -12.27623,-1.39951 -4.28038,28.58802 36.87692,8.6492 8.30445,-40.4403 -39.64984,-20.45633 -27.30398,26.67987 25.61361,69.18626 59.42842,-30.42164 10.19852,-36.56341 -43.92344,-54.65035 9.65333,-54.55827 10.42362,-28.866469 -13.56393,30.179739 -11.75151,54.32514 39.13954,55.56972 -7.9805,28.79923 -47.89909,25.46744 -17.83992,-56.83183 17.68426,-20.33639 29.99557,16.78463 -5.84652,27.8404 -24.37487,-4.38782 1.4397,-16.6845 3.52692,0.49037 z"
         id="path32"
         sodipodi:nodetypes="cccccccccccccccccccccccccccc" /></g></g><g
     id="g35"
     inkscape:export-filename="../../../../../g4.svg"
     inkscape:export-xdpi="96"
     inkscape:export-ydpi="96"
     transform="matrix(0.49302775,0,0,0.49302775,404.03883,-66.125968)"><path
       id="path34"
       style="fill:#ffffff;fill-opacity:1;stroke:none;stroke-width:0.264583px;stroke-linecap:butt;stroke-linejoin:miter;stroke-opacity:1"
       d="m -457.71765,327.56709 c -2.54593,0.20378 -4.19625,2.82336 -5.69784,8.51008 -1.17527,4.45087 -2.32731,5.56939 0.51676,22.71437 1.85846,11.20332 -79.33779,63.44833 -74.10813,76.91313 5.22964,13.4648 8.12662,30.06433 -7.26467,51.85523 -15.3913,21.7909 -30.39346,48.18628 -18.35289,93.68575 11.64045,43.98751 81.16145,46.34446 81.16145,46.34446 0,0 70.48657,1.99687 92.02125,-45.34245 34.36971,-75.55435 -28.64251,-96.23379 -20.31297,-113.70933 18.75807,-39.35485 -29.03473,-44.73928 -13.17852,-68.7865 10.14669,-15.38827 9.15497,-39.97329 -11.1311,-56.08391 -12.6788,-10.06914 -19.41012,-16.44046 -23.65334,-16.10083 z m 8.88281,24.92034 c 0.67722,1.13595 0.36269,1.77788 2.84427,6.10039 6.57897,11.4595 5.49525,22.68396 2.47521,28.11884 6.43826,-7.45859 1.4727,-26.30017 6.44731,-8.21341 1.96501,7.14443 -5.51434,16.39535 -8.90768,31.41337 -3.43104,15.18487 9.85029,15.92394 16.42881,33.64832 7.43932,20.04362 -5.53783,21.36123 -3.00839,36.74004 3.64147,22.13988 37.60189,29.26408 26.44614,79.73142 -9.62323,42.04211 -55.57705,45.83902 -83.46765,45.04474 -26.44613,-0.75315 -50.24692,-16.65693 -52.02244,-44.63211 -2.17095,-34.20562 4.54921,-48.17024 27.53415,-74.22788 46.85864,-53.12287 -17.67263,-36.07227 35.1275,-81.20525 17.78811,-15.20507 35.36624,-29.86328 31.75818,-42.34092 -2.65568,-9.18404 -2.66316,-11.86794 -1.65541,-10.17755 z"
       sodipodi:nodetypes="sssssscssssssscsssscssssss" /><path
       style="font-weight:900;font-stretch:condensed;font-size:254px;line-height:1.25;font-family:'Nunito Sans 7pt Condensed';-inkscape-font-specification:'Nunito Sans 7pt Condensed,  Heavy Condensed';fill:#ffffff;stroke-width:0.264583"
       d="m -497.13503,584.41228 v -93.218 l 7.874,30.734 -62.738,-116.586 h 49.022 l 28.194,66.04 h 1.016 l 28.448,-66.04 h 48.26 l -62.992,116.586 7.874,-30.734 -0.254,93.218 z"
       id="path35"
       aria-label="Y" /></g></svg>
